<svg 
id="thinkycompound" 
data-name="Layer 1" 
xmlns="http://www.w3.org/2000/svg" 
viewBox="0 0 300 300"><defs><style>.cls-1{fill:#488fcd;}</style></defs><path class="cls-1" d="M250,100c-82.71,0-150,67.29-150,150s67.29,150,150,150,150-67.29,150-150S332.71,100,250,100Zm0,288c-76.1,0-138-61.91-138-138S173.9,112,250,112,388,173.9,388,250,326.11,388,250,388ZM156.77,241.78v-17.4c13.09.74,20.34,9.08,22.16,25.45l.17,1.56c1.63,14.27,4.79,21.06,18.36,21.06,5.42,0,9.69-1.66,12.36-4.8a14.31,14.31,0,0,0,2.75-11.75,60.33,60.33,0,0,0-4.17-13c-3.08-7.63-6.91-17.11-6.91-31.94,0-24.7,15-49.62,48.5-49.62,14.12,0,26.06,4.51,34.56,13,8.86,8.89,13.91,22.22,13.86,36.58,0,14.84-3.83,24.32-6.91,31.94l-.15.38c-1.75,4.39-3.27,8.18-4,12.68a14.23,14.23,0,0,0,2.76,11.74c2.66,3.14,6.93,4.8,12.35,4.8,13.57,0,16.73-6.79,18.36-21.06l.18-1.55c1.81-16.38,9.06-24.72,22.15-25.46v17.4c-3.45.57-4.15,3.05-4.93,10l-.17,1.62c-1,9-4.08,36.43-35.56,36.43-10.51,0-19.6-3.88-25.57-10.94A31.62,31.62,0,0,1,270.28,253a78.14,78.14,0,0,1,5.2-16.63l0-.09c2.88-7.17,5.6-13.94,5.6-25.38,0-7.57-2.25-32.27-31.15-32.27s-31.16,24.7-31.16,32.27c0,11.44,2.72,18.21,5.6,25.38l.11.25A74.76,74.76,0,0,1,229.65,253,31.65,31.65,0,0,1,223,278.86c-6,7.06-15.07,10.94-25.58,10.94-28.11,0-33.75-20.77-35.55-36.4l-.18-1.64C161,244.83,160.25,242.34,156.77,241.78Zm79.56-2.12V222.32h10v17.34Zm17.37,0V222.32h10v17.34Zm95,75.69c-16,14.14-35.72,16.29-46.21,16.29-20.31,0-38.44-7.88-51-22.2L250,307.79l-1.46,1.65c-12.6,14.32-30.74,22.2-51.07,22.2-10.33,0-29.74-2.09-45.71-15.85l9.54-10.36c12.47,10.51,27.9,12.12,36.17,12.12,16.65,0,31.26-6.45,41.15-18.17a50.22,50.22,0,0,0,5.26-7.51l2.64-4.67h7l2.65,4.66a48.93,48.93,0,0,0,5.23,7.52c9.92,11.72,24.53,18.17,41.15,18.17,8.38,0,24-1.66,36.55-12.47Z" transform="translate(-100 -100)"/></svg>