<svg 
    xmlns="http://www.w3.org/2000/svg" 
    viewBox="0 0 1600 404">
    <defs>
        <style>
        .cls-1{ isolation:isolate; }
        .cls-2{ fill:#4790cd; }
        .cls-3{ fill:none; }
        .cls-4{ fill:#fff;mix-blend-mode:soft-light; }
        </style>
    </defs>
    <g class="cls-1">
        <g id="Layer_2" data-name="Layer 2">
        <path 
            class="cls-2" 
            d="M1600,202s0-8,0-37C1289,165,1190.1,3.75,789,4,389,4,289,165,0,165V408H1600V202Z" 
            transform="translate(0 -4)"/>
        </g>
        <g id="Layer_3" data-name="Layer 3">
        <path 
            class="cls-3" 
            d="M1054.69,33.05c-83-18.87-169.63-28-264.76-28H789c-96.58,0-184.25,9.45-268,28.9C447.11,51.05,385.76,73.5,326.43,95.21c-94.91,34.73-184.83,67.6-308.33,70.55H1579.55c-134.72-3.13-229.67-37-329.9-72.69C1189.89,71.77,1128.1,49.74,1054.69,33.05Z" 
            transform="translate(0 -4)"/>
        <path class="cls-4" 
            d="M326.43,95.21C385.76,73.5,447.11,51.05,521,33.9,604.75,14.45,692.42,5,789,5h.93c95.13,0,181.74,9.18,264.76,28.05,73.41,16.69,135.2,38.72,195,60,100.23,35.72,195.18,69.56,329.9,72.69H1600V165C1289.25,165,1190.24,4,789.93,4H789C389,4,289,165,0,165v.76H18.1C141.6,162.81,231.52,129.94,326.43,95.21Z" 
            transform="translate(0 -4)"/>
        </g>
    </g>
</svg>